<svg width="36" height="35" viewBox="0 0 36 35" fill="none" xmlns="http://www.w3.org/2000/svg">
<path d="M22.8987 5.6734L19.5178 1.73325C18.7197 0.803102 17.2803 0.8031 16.4822 1.73325L13.1013 5.6734L7.92448 5.27796C6.70241 5.18461 5.68461 6.20241 5.77796 7.42448L6.1734 12.6013L2.23325 15.9822C1.3031 16.7803 1.3031 18.2197 2.23325 19.0178L6.1734 22.3987L5.77796 27.5755C5.68461 28.7976 6.70241 29.8154 7.92448 29.722L13.1013 29.3266L16.4822 33.2668C17.2803 34.1969 18.7197 34.1969 19.5178 33.2668L22.8987 29.3266L28.0755 29.722C29.2976 29.8154 30.3154 28.7976 30.222 27.5755L29.8266 22.3987L33.7668 19.0178C34.6969 18.2197 34.6969 16.7803 33.7668 15.9822L29.8266 12.6013L30.222 7.42448C30.3154 6.20241 29.2976 5.18461 28.0755 5.27796L22.8987 5.6734Z" stroke="#3EA642" stroke-width="2"/>
</svg>
